Coordinates
version=1
nRows=8
nColumns=40
inDegrees=yes

Units are S.I. units (second, meters, Newtons, ...)
Angles are in degrees.

endheader
time	pelvis_tilt	pelvis_list	pelvis_rotation	pelvis_tx	pelvis_ty	pelvis_tz	hip_flexion_r	hip_adduction_r	hip_rotation_r	knee_angle_r	knee_angle_r_beta	ankle_angle_r	subtalar_angle_r	mtp_angle_r	hip_flexion_l	hip_adduction_l	hip_rotation_l	knee_angle_l	knee_angle_l_beta	ankle_angle_l	subtalar_angle_l	mtp_angle_l	lumbar_extension	lumbar_bending	lumbar_rotation	arm_flex_r	arm_add_r	arm_rot_r	elbow_flex_r	pro_sup_r	wrist_flex_r	wrist_dev_r	arm_flex_l	arm_add_l	arm_rot_l	elbow_flex_l	pro_sup_l	wrist_flex_l	wrist_dev_l
      5.86142857	     -3.45178548	     -5.54840326	      5.38681253	      0.93117919	      0.93185071	      0.52667866	      7.87993765	      4.48970266	    -16.57218419	     13.36343491	     13.36343491	     10.81698672	     -0.29622232	     -3.85790130	     37.13819364	    -10.65710832	      4.04074855	     48.13614783	     48.13614783	      8.68523812	    -17.50274388	     12.36780371	    -12.18391826	      6.36891955	      2.95499869	     32.48383465	    -18.23049108	      0.25306417	     75.03257508	     44.73621038	      0.00000000	      0.00000000	     -0.83708201	     -7.46513051	     -1.33821439	     27.01268784	     47.12767841	      0.00000000	      0.00000000
      5.87285714	     -3.64685868	     -5.45458189	      5.27722680	      0.93045926	      0.93145349	      0.52668849	      7.46553185	      4.45300334	    -16.43322760	     13.17070553	     13.17070553	     11.18516120	     -0.09301094	     -3.90488781	     37.28838808	    -10.35510816	      3.95884983	     44.25951642	     44.25951642	      8.77571543	    -16.58400659	     12.46392631	    -12.09204589	      6.18715181	      2.91594357	     34.77650741	    -17.77680351	      0.19159067	     76.97125312	     44.68994217	      0.00000000	      0.00000000	     -2.12318123	     -7.44628415	     -1.37593995	     25.88706927	     47.10372179	      0.00000000	      0.00000000
      5.88428571	     -3.77483217	     -5.46793411	      5.20081144	      0.92999212	      0.93103549	      0.52651098	      6.94751308	      4.49174437	    -16.59907235	     12.97988696	     12.97988696	     11.74473653	      0.60413008	     -3.62002993	     37.18107303	    -10.14343726	      3.97653778	     40.18494383	     40.18494383	      8.02725292	    -15.56430153	     10.27737064	    -12.06581438	      6.15467437	      3.02586787	     36.53597299	    -17.81270492	      0.65435891	     80.33696591	     44.61958286	      0.00000000	      0.00000000	     -2.70681774	     -7.22610086	     -1.73942452	     23.37520148	     47.11488118	      0.00000000	      0.00000000
      5.89571429	     -3.92686728	     -5.44177387	      5.12097882	      0.92961884	      0.93054766	      0.52623383	      6.41588658	      4.53009244	    -16.50113556	     12.69194039	     12.69194039	     12.07541925	      0.77573491	     -3.65075655	     37.10171002	     -9.89149374	      3.98995619	     36.42597380	     36.42597380	      8.18738159	    -13.87399533	     10.34131503	    -11.95913126	      6.05808152	      2.87281008	     38.65575783	    -17.09234718	      0.52534278	     82.24041863	     44.58218636	      0.00000000	      0.00000000	     -4.04549145	     -7.21372196	     -1.75893621	     22.61877836	     47.08024695	      0.00000000	      0.00000000
      5.90714286	     -4.06375415	     -5.39087183	      5.01820314	      0.92942630	      0.93002532	      0.52580986	      5.84559682	      4.52813531	    -16.39280858	     12.39972191	     12.39972191	     12.43505060	      1.02958502	     -3.71655761	     36.91932731	     -9.64020635	      3.92487307	     32.84390189	     32.84390189	      8.37819087	    -12.01212818	     10.50321855	    -11.83944873	      5.93885578	      2.84564910	     40.62744887	    -16.59179441	      0.53086334	     84.02801862	     44.53982422	      0.00000000	      0.00000000	     -5.28776232	     -7.21115535	     -1.73229031	     22.03238579	     47.04185090	      0.00000000	      0.00000000
      5.91857143	     -4.16726799	     -5.48193533	      4.95587155	      0.92943969	      0.92937972	      0.52523954	      5.16311344	      4.67592047	    -16.46025946	     11.96789628	     11.96789628	     12.79529502	      1.57531923	     -3.65518075	     36.77101557	     -9.56124722	      3.77760445	     29.66374687	     29.66374687	      8.44873829	     -9.93140802	     10.25076331	    -11.77086278	      6.01692289	      2.78206740	     42.36839743	    -16.24620649	      0.82983243	     86.62856909	     44.48405013	      0.00000000	      0.00000000	     -6.64622591	     -7.19410627	     -1.53630271	     21.89534685	     46.93344206	      0.00000000	      0.00000000
      5.93000000	     -4.24980964	     -5.47347608	      4.86111973	      0.92960052	      0.92875104	      0.52451302	      4.49148115	      4.71012356	    -16.33101288	     11.63445237	     11.63445237	     13.14531421	      1.82584974	     -3.70319717	     36.51894874	     -9.35586921	      3.58794236	     26.79175674	     26.79175674	      8.54056128	     -8.32504108	     10.59476517	    -11.64307479	      5.97638983	      2.75298035	     44.14345936	    -15.74416290	      0.87325025	     88.29223917	     44.44549782	      0.00000000	      0.00000000	     -7.86422099	     -7.17555071	     -1.42654230	     21.55919261	     46.87377447	      0.00000000	      0.00000000
      5.94142857	     -4.31293762	     -5.54451961	      4.77992382	      0.92996631	      0.92803762	      0.52365517	      3.74197586	      4.83062003	    -16.26584985	     11.20421680	     11.20421680	     13.46017358	      2.18839973	     -3.71325560	     36.31561400	     -9.25067688	      3.23690358	     24.43967054	     24.43967054	      8.61617256	     -6.90802497	     10.91629213	    -11.52201698	      6.03256685	      2.67311159	     45.78442061	    -15.25325262	      1.03218720	     90.13409508	     44.39836872	      0.00000000	      0.00000000	     -9.14451611	     -7.12887068	     -1.28611412	     21.47894469	     46.80021598	      0.00000000	      0.00000000
